<svg fill="none" height="200" width="310" xmlns="http://www.w3.org/2000/svg"><path d="M.706 108.129c2.037.002 4.073.01 6.11-.002.35-.002.474.094.545.454.555 2.806 2.326 4.542 4.988 5.447 1.732.589 3.53.739 5.35.685 1.977-.058 3.94-.224 5.83-.857 1.235-.413 2.371-.981 3.203-2.034 1.09-1.38 1.183-4.099-1.268-5.162-1.273-.553-2.62-.797-3.971-1.046-3.99-.739-7.986-1.458-11.967-2.244-1.364-.27-2.656-.802-3.863-1.512-2.02-1.19-3.088-2.979-3.308-5.264-.159-1.652-.075-3.295.473-4.886.901-2.618 2.77-4.322 5.259-5.413 2.005-.88 4.127-1.33 6.303-1.427 1.91-.084 3.833-.118 5.738.008 3.015.2 5.92.875 8.43 2.674 2.125 1.522 3.34 3.603 3.685 6.178.07.528.083 1.065.126 1.596.021.27-.061.404-.373.401-1.693-.011-3.385-.01-5.077-.002-.24.001-.357-.078-.39-.314-.385-2.766-2.082-4.384-4.697-5.06-3.482-.904-6.98-.889-10.438.184-.464.144-.912.38-1.324.643-1.49.95-2.063 2.477-1.611 4.176.263.992.918 1.646 1.815 2.09 1.273.631 2.654.906 4.036 1.145 3.382.587 6.775 1.117 10.154 1.717 1.871.333 3.698.845 5.378 1.77 2.177 1.2 3.376 3.043 3.662 5.486.22 1.881.163 3.737-.586 5.515-1.015 2.414-2.884 3.965-5.217 5.029-1.974.901-4.066 1.374-6.216 1.612-.993.11-1.99.189-2.984.282h-2.787c-.13-.022-.26-.058-.392-.063-1.93-.086-3.838-.322-5.701-.849-4.462-1.26-7.425-3.991-8.5-8.562-.163-.703-.277-1.417-.415-2.127v-.268ZM195.114 76c-.008.134-.021.268-.021.4l-.001 14.545v.524c.194-.216.308-.34.418-.467 2.472-2.88 5.494-4.898 9.265-5.648 3.636-.723 7.24-.65 10.679.908 3.117 1.414 4.963 3.867 5.505 7.208.254 1.56.369 3.16.378 4.742.04 6.663.017 13.325.017 19.988v.521c-.204.01-.363.024-.523.024-1.632.002-3.265-.016-4.897.012-.452.008-.543-.146-.542-.56.011-6.26.018-12.522.001-18.782-.004-1.83-.139-3.652-.784-5.394-.87-2.349-2.65-3.571-5.067-3.912-2.879-.405-5.677-.09-8.289 1.25-3.391 1.74-5.319 4.56-5.961 8.256-.155.887-.19 1.803-.193 2.705-.017 5.294-.008 10.589-.008 15.883v.511h-5.985V76.624c0-.208-.01-.416-.015-.624H195.114ZM53.015 119.999c-.77-.093-1.542-.167-2.308-.281-7.165-1.073-12.722-5.877-14.2-13.285-.746-3.745-.558-7.461.831-11.048 1.835-4.737 5.215-7.959 10.054-9.562 4.88-1.616 9.788-1.561 14.566.388 4.547 1.854 7.442 5.207 8.597 9.989.034.14.049.286.078.461-.151.016-.266.039-.381.039-1.813.002-3.625 0-5.438.002-.216 0-.38-.001-.475-.275-1.176-3.336-3.603-5.27-7.03-5.92-3.363-.64-6.633-.259-9.632 1.478-2.9 1.678-4.489 4.296-5.088 7.52-.524 2.818-.36 5.602.796 8.258 1.527 3.513 4.27 5.581 8.003 6.35 2.681.553 5.334.423 7.865-.711 2.816-1.263 4.574-3.414 5.277-6.409.02-.086.038-.174.061-.259.016-.057.039-.11.066-.183h6.274c-.162.669-.283 1.305-.469 1.921-1.9 6.272-6.165 9.925-12.59 11.155-.92.176-1.86.25-2.791.37h-2.068l.002.002ZM127.704 119.999c-.829-.094-1.661-.168-2.487-.283-7.07-.982-13.092-5.279-14.626-13.372-.848-4.477-.44-8.853 1.74-12.946 1.793-3.37 4.556-5.688 8.083-7.136.054-.022.112-.038.169-.053.012-.004.028.009.081.028.008.124.024.266.024.407.002 1.933-.005 3.867.007 5.8.002.293-.083.49-.314.681-2.166 1.801-3.343 4.14-3.755 6.887-.34 2.265-.242 4.505.458 6.694 1.085 3.401 3.324 5.738 6.726 6.89 3.424 1.16 6.885 1.156 10.286-.087 3.718-1.359 5.901-4.099 6.728-7.895.622-2.858.496-5.696-.612-8.444a9.92 9.92 0 0 0-3.008-4.046c-.229-.185-.326-.376-.323-.674.012-2.081.007-4.163.007-6.312.2.072.363.12.519.188 5.292 2.278 8.461 6.28 9.58 11.854.781 3.891.579 7.758-.916 11.473-2.014 5.005-5.791 8.093-10.965 9.5-1.472.401-3.025.511-4.54.754-.205.033-.411.063-.616.093h-2.247l.001-.001ZM261.487 103.473H232.355c-.879 0-.894 0-.858.845.117 2.755 1.16 5.103 3.198 6.988 1.765 1.632 3.902 2.513 6.255 2.881 2.535.395 5.045.243 7.478-.606 2.507-.876 4.457-2.398 5.508-4.9.023-.054.061-.102.097-.162h6.968c-.25.62-.461 1.211-.725 1.776-2.031 4.349-5.395 7.224-9.98 8.622-5.013 1.527-10.045 1.487-14.944-.454-5.223-2.069-8.397-5.973-9.644-11.379-.958-4.149-.77-8.275.855-12.247 2.058-5.032 5.9-8.068 11.124-9.443 2.806-.739 5.663-.85 8.545-.548 2.908.305 5.659 1.09 8.136 2.671 3.565 2.273 5.651 5.566 6.603 9.608.499 2.12.697 4.867.515 6.348h.001Zm-6.387-4.239c-.013-.149-.01-.253-.031-.352-.715-3.392-2.538-5.967-5.735-7.454-2.98-1.386-6.119-1.564-9.29-.86-3.738.83-6.442 2.956-7.82 6.582-.25.656-.401 1.35-.615 2.085h23.492-.001ZM79.974 118.793H74.05V76.671c0-.404.203-.606.61-.607h4.628c.477 0 .715.231.715.693V91.374l.103.033c.335-.366.666-.738 1.005-1.1 2.708-2.895 6.02-4.676 9.974-5.158 3.015-.368 6.01-.248 8.865.947 3.404 1.426 5.43 3.967 5.977 7.594.221 1.464.346 2.954.354 4.434.037 6.708.016 13.416.016 20.124v.546h-5.984v-.561c-.002-6.589.023-13.178-.031-19.767-.01-1.247-.23-2.517-.537-3.73-.625-2.473-2.234-4.03-4.79-4.49-3.553-.641-6.925-.151-9.968 1.86-2.687 1.776-4.206 4.34-4.741 7.471-.17.99-.228 2.009-.232 3.015-.022 5.19-.01 10.382-.012 15.572 0 .204-.019.406-.03.631v-.002ZM157.446 91.14c.622-.532 1.331-1.103 1.999-1.716 2.69-2.47 5.837-3.934 9.489-4.323 2.662-.283 5.289-.168 7.832.726 3.924 1.377 6.222 4.131 6.717 8.232.245 2.029.303 4.087.317 6.134.04 5.977.014 11.956.013 17.935 0 .431-.223.647-.669.648h-4.718c-.592 0-.595-.003-.595-.589 0-6.305.007-12.611-.005-18.916-.003-1.591-.138-3.173-.601-4.71-.808-2.678-2.68-4.107-5.414-4.455-2.487-.317-4.934-.106-7.259.883-3.909 1.662-6.15 4.639-6.837 8.775-.145.874-.182 1.774-.185 2.662-.016 5.249-.008 10.499-.008 15.749v.562c-.183.015-.327.038-.472.038-1.677.002-3.355-.007-5.032.008-.359.003-.49-.083-.489-.469.01-10.677.008-21.355.009-32.033 0-.13.012-.261.021-.418h5.886v5.278l.001-.001ZM286.409 91.44c-.836-.164-1.634-.348-2.442-.473-4.664-.724-8.915 1.458-11.043 5.643-.948 1.867-1.38 3.852-1.385 5.93-.01 5.19-.002 10.381-.003 15.571 0 .423-.209.634-.627.634h-4.717c-.426 0-.639-.207-.639-.621V86.446c0-.416.212-.624.636-.624H271.488v5.5c.397-.496.701-.89 1.02-1.272 2.314-2.764 5.208-4.567 8.804-5.16 1.359-.223 2.734-.338 4.102-.027.967.219.994.259.994 1.218V91.44h.001ZM288.713 85.846h5.881v5.337l.099.033c.206-.262.41-.526.618-.787 2.124-2.673 4.779-4.556 8.151-5.34 1.638-.38 3.298-.565 4.977-.242.058.012.119.02.176.035.567.152.85.523.85 1.114v4.862c0 .175-.016.35-.027.576-.632-.134-1.222-.263-1.813-.383-6.08-1.236-11.033 2.506-12.497 7.906-.36 1.33-.487 2.685-.49 4.052-.007 5.041-.002 10.082-.002 15.122 0 .409-.201.614-.602.614H288.714v-32.9h-.001Z" fill="#8F8B85"></path><path d="M132.062 84.97v5.866a13.396 13.396 0 0 0-6.495-.008c-.019-.178-.043-.306-.044-.434-.003-1.68 0-3.36-.004-5.038 0-.246.029-.4.336-.458 1.111-.213 5.107-.192 6.206.073h.001Z" fill="#8F8B85"></path></svg>