<svg fill="none" height="200" width="399" xmlns="http://www.w3.org/2000/svg"><path d="M194.632 114.26c-5.966-4.331-6.376-11.878-.947-16.846.852-.765 1.768-1.465 2.211-1.848 5.46 6.274 10.826 12.389 16.255 18.599-5.776 3.63-12.563 3.694-17.519.095Zm6.061-37.802c1.957-.7 3.788-.573 5.24 1.115 1.673 1.91 2.051 4.236.411 6.465-1.673 2.325-3.851 4.331-5.809 6.465l-.852-.287c-.632-2.866-1.484-5.7-1.767-8.566-.316-2.771.852-4.523 2.777-5.192Zm65.469 33.216c-.062 1.02-.315 2.039-.442 3.09-.189 1.656-.946 2.675-2.683 2.738-5.113.16-10.259.319-15.405.351-.472 0-1.324-.828-1.324-1.274-.096-4.905-.064-9.777-.064-14.236 2.936-.573 5.903-.732 8.554-1.751 2.937-1.115 4.167-3.885 4.862-7.006-.474.063-.632.031-.726.095-.347.223-.694.446-1.01.733-2.968 2.611-6.44 3.47-10.323 3.184-1.231-.095-1.673-.51-1.609-1.751.063-1.943.031-3.885.031-5.828V77.446c5.177 0 9.881-.032 14.584 0 2.399 0 3.567 1.21 3.567 3.694 0 1.083.315 2.134.505 3.28.631-.032 1.168-.064 1.673-.064.347-3.343.694-6.528 1.074-10.031h-33.43c-.378 1.178-.095 1.688 1.262 1.815 4.42.414 4.641.733 4.641 5.223v12.484c-4.641-.637-8.966-1.306-13.321-1.752-3.41-.35-6.85-.414-10.069 1.147-2.053 1.019-3.379 2.452-3.252 5.031 2.084-1.37 4.071-1.37 5.902.255 1.831 1.656 1.673 3.726.916 5.733-.789 2.038-1.893 3.917-3.03 6.241-6.029-5.955-11.744-11.369-15.847-18.311 1.389-1.02 2.652-1.847 3.82-2.803 1.168-.955 2.461-1.847 3.346-3.025 1.262-1.688 2.557-3.503 3.188-5.446 1.104-3.408-.6-6.72-3.535-7.58-2.621-.764-5.209-.668-7.482 1.051-1.484 1.115-2.81 2.389-4.23 3.6-2.62 2.26-3.346 5.158-2.683 8.439.443 2.26 1.137 4.49 1.642 6.592-2.305 1.688-4.672 3.12-6.725 4.936-3.945 3.503-5.302 7.962-4.009 13.121 1.263 5.095 4.799 7.834 9.724 8.566 2.999.446 6.155.446 9.185.16 4.073-.351 7.766-2.007 11.081-4.459 1.01.924 1.862 1.72 2.714 2.516 4.577 4.299 8.365 1.146 12.217-1.369.441-.287.663-.892.977-1.37-5.05 1.019-7.827.159-11.363-3.821 4.072-4.809 7.229-9.873 3.536-16.56 5.84-.32 11.269.923 16.477 3.025.411.159.758 1.083.758 1.656.063 4.076.063 8.153.031 12.229-.031 3.153-1.072 4.522-4.167 5.223-1.325.318-1.452.923-1.105 1.942h33.241c.189-3.726.347-7.133.505-10.573-1.295-.382-2.083-.127-2.179 1.433ZM44.375 75.98c.094 0 .22-.127.473-.318-.063-.51-.158-1.05-.22-1.433H31.116v1.816h1.326c4.166.127 4.83 1.114 3.346 5.063-1.926 5.16-3.82 10.35-5.809 15.478-1.768 4.585-3.63 9.108-5.65 14.108a573.216 573.216 0 0 1-2.715-6.975c-3.157-8.312-6.25-16.655-9.438-24.936-.663-1.624-.127-2.325 1.42-2.547 1.137-.16 2.305-.223 3.599-.319-.032-.637-.063-1.178-.095-1.688H.465v1.72c1.831.414 3.82.191 4.672 2.42C10.22 91.49 15.365 104.58 20.416 117.7c.378.987.662 1.688 1.925 1.592 1.136-.095 1.989-.032 2.525-1.433 5.02-12.834 10.133-25.636 15.152-38.47.884-2.07 2.02-3.44 4.357-3.408ZM318.248 117.445c-1.611-1.21-3.44-2.229-4.893-3.63-2.02-1.975-3.788-4.172-5.588-6.338-1.798-2.165-3.471-4.395-5.271-6.688 2.273-1.974 4.198-3.821 6.281-5.477 2.273-1.815 4.262-4.14 7.419-4.618.252-.032.441-.732.694-1.21-5.114-.669-5.272-.605-8.333 2.42-1.958 1.943-3.852 3.917-5.872 5.796-1.546 1.433-3.219 2.739-5.082 4.3V72.191c-2.999.605-5.935 1.147-8.87 1.816-.569.127-1.041.573-1.579.86.505.35.947.891 1.484 1.082 2.905.924 3.82 2.07 3.82 5.064v29.872c0 .892-.063 1.783-.127 2.675-.189 2.229-1.326 3.567-3.535 3.885-.537.096-1.042.223-1.547.319-.064.159-.126.35-.189.509.474.223.915.669 1.389.669 4.387.064 8.776.064 13.132 0 .441 0 .884-.478 1.325-.733-2.146-.7-4.419-.764-4.735-3.025-.568-3.885-.663-7.834-.946-11.751l.757-.191 12.501 14.522c.472.541 1.104 1.242 1.704 1.273 2.241.16 4.483.064 7.418.064-.663-.86-.946-1.337-1.357-1.656ZM371.91 116.84c-2.683-.509-3.25-1.274-3.377-4.076-.063-1.242 0-2.484-.031-3.726-.096-4.204.158-8.472-.41-12.611-.979-7.294-8.713-10.223-14.457-5.733-1.422 1.115-2.843 2.166-4.705 3.599v-5.574c-3.124.67-5.965 1.37-8.839 1.816-1.451.223-1.673.86-1.262 2.165.757.16 1.609.223 2.368.446 1.546.478 2.714 1.338 2.714 3.185 0 5.382.064 10.796-.063 16.178-.062 3.057-.789 3.79-3.819 4.363-1.358.255-1.736.796-1.106 2.134 4.894 0 9.755.031 14.585-.064.41 0 .821-.924 1.451-1.656-4.986-.796-5.649-1.592-5.682-6.051 0-2.771-.031-5.541 0-8.28.033-1.656.033-3.312.316-4.936.632-3.249 2.905-4.937 6.534-5.096 3.252-.159 5.273 1.21 6.187 4.523.411 1.496.601 3.12.601 4.681.062 5.509.031 11.051.031 16.719h9.976c.409-1.05.378-1.719-1.012-2.006ZM89.42 116.84c-2.146-.159-3.156-1.433-3.22-3.535-.062-1.528-.189-3.025-.22-4.554-.032-3.726.126-7.484-.064-11.21-.189-3.599-1.736-6.624-5.145-8.089-3.377-1.465-6.66-1.274-9.596 1.306-1.294 1.146-2.778 2.133-4.42 3.407-.094-2.07-.189-3.726-.252-5.446-3.094.67-5.871 1.338-8.712 1.816-1.484.255-1.863.828-1.358 2.23.821.158 1.642.254 2.43.477 1.61.446 2.684 1.465 2.684 3.248 0 5.382.032 10.796-.158 16.178-.126 3.248-.663 3.726-3.85 4.268-1.358.254-1.548.828-1.043 2.133 4.893 0 9.818.032 14.71-.063.41 0 .821-.86 1.421-1.497-4.83-1.147-5.556-1.72-5.619-4.777-.095-4.363-.126-8.726 0-13.057.126-4.077 2.43-6.338 6.44-6.688 3.788-.319 5.934 1.37 6.85 5.541.252 1.21.347 2.452.347 3.695.031 4.968 0 9.967.031 14.936 0 .605.064 1.178.095 1.751h9.944c.379-1.337 0-1.974-1.294-2.07ZM179.133 116.999c-3.251-1.019-3.599-1.274-3.694-4.681-.125-4.777-.062-9.554-.189-14.3-.126-3.789-1.609-6.942-5.177-8.534-3.44-1.529-6.786-1.274-9.754 1.401-1.232 1.115-2.652 2.07-4.262 3.312-.094-2.07-.158-3.758-.252-5.446-3.283.67-6.314 1.21-9.28 1.943-.505.127-.821 1.115-1.326 1.879 1.484.35 2.43.478 3.314.764 1.452.446 2.336 1.497 2.336 3.058 0 5.382.031 10.796-.158 16.178-.126 3.28-.663 3.726-3.85 4.299-1.484.255-1.611.892-.979 2.102 4.861 0 9.627.032 14.426-.064.505 0 .979-.764 1.831-1.433-5.588-1.338-5.777-1.561-5.904-6.688a210.375 210.375 0 0 1 0-8.917c.031-1.497.095-3.057.474-4.522.758-2.898 3.094-4.395 6.629-4.49 2.968-.096 4.955 1.178 5.84 4.171.505 1.625.694 3.376.726 5.096.095 5.509.031 11.051.031 16.719h10.764c-.726-.891-1.041-1.687-1.546-1.847Z" fill="#8F8B85"></path><path d="M140.054 111.936c-.884 2.866-2.684 5.031-5.777 5.573-3.252.541-6.124-.446-8.239-3.089-2.841-3.503-3.441-7.707-3.662-12.611.126-.956.221-2.484.537-3.95.789-3.885 3.125-6.369 6.439-6.878 4.199-.669 7.071.573 9.091 4.363 2.81 5.254 3.41 10.859 1.611 16.592Zm-7.513-23.344c-9.755.032-16.099 6.433-16.099 16.21 0 8.79 5.713 15.127 13.731 15.159 9.818.064 16.951-6.879 16.983-16.56.032-8.44-6.25-14.809-14.615-14.809ZM398.049 107.509c-.632-3.758-3.568-4.936-6.756-5.732-2.588-.637-5.209-1.115-7.734-1.975-2.494-.828-3.535-2.42-3.346-4.363.189-2.102 1.958-3.949 4.294-4.458 4.924-1.051 8.49 1.305 9.406 6.37.379.03.884.063.884.03.347-2.005.758-3.98.947-5.986.063-.478-.473-1.338-.916-1.497-4.608-1.592-9.249-1.975-13.857-.096-3.693 1.53-5.524 4.49-5.366 8.471.125 3.344 1.925 5.542 5.903 6.784 2.619.828 5.302 1.369 7.923 2.102 2.02.573 3.693 1.56 3.882 3.949.222 2.325-.852 4.14-3.188 5.286-2.904 1.402-5.84 1.179-8.744.032-2.209-.892-3.787-2.197-3.473-4.904.064-.669-.125-1.338-.22-2.007l-.568-.382c-.411.51-1.105.956-1.199 1.497-.285 2.102-.411 4.268-.474 6.401 0 .446.441 1.179.821 1.338 6.155 2.293 12.215 2.388 17.866-1.497 3.219-2.197 4.545-5.478 3.915-9.363ZM108.865 101.968c-.915-.255-1.894-.382-2.809-.637-2.305-.637-4.704-1.083-6.818-2.07-2.747-1.306-3.094-4.618-.853-6.72 2.273-2.134 4.956-2.038 7.734-1.242 2.431.7 4.104 2.102 4.325 4.873.063.51.82.987 1.262 1.465.632-2.262.695-4.109.916-5.956.126-1.114-.253-1.592-1.294-1.91-3.662-1.147-7.355-1.561-11.143-.733-4.704 1.02-7.545 4.013-7.734 8.12-.19 4.459 1.704 6.784 6.913 8.313 2.367.7 4.798 1.146 7.165 1.815 1.894.541 3.378 1.656 3.631 3.758.252 2.229-.79 3.853-2.62 5.032-2.431 1.56-5.083 1.56-7.734.955-3.978-.923-5.02-2.325-5.209-6.401 0-.35-.063-.669-.126-1.147-1.862-.031-1.831-.031-1.926 1.37-.126 2.006-.347 3.981-.347 5.987 0 .541.537 1.465 1.01 1.592 2.368.637 4.767 1.402 7.198 1.465 4.545.128 8.901-.923 12.153-4.49 4.514-4.968 2.651-11.592-3.694-13.439ZM279.832 112.158c-.064-10.636.031-21.273.094-31.942V72c-2.967.605-5.839 1.147-8.713 1.783-.63.128-1.168.605-1.736.924.506.382 1.011.924 1.578 1.115 2.527.796 3.726 1.942 3.726 4.044.031 10.86.063 21.719-.031 32.579-.033 3.312-.854 4.172-4.042 4.968-.441.096-.788.51-1.199.764.474.255.916.669 1.39.669 4.323.064 8.617.064 12.942 0 .472 0 .915-.382 1.388-.605l-.284-.573c-4.198-.796-5.082-1.529-5.113-5.51ZM331.663 111.522c-.094-4.618.032-9.267.064-13.885.032-2.93 0-5.86 0-8.886-3.062.606-5.998 1.147-8.934 1.816-.63.159-1.168.764-1.736 1.146.568.414 1.106 1.051 1.736 1.21 2.683.67 3.379 1.497 3.379 4.3 0 4.904.031 9.808 0 14.745-.033 3.439-.663 4.267-3.915 4.904-1.262.255-1.642.764-1.104 2.038h15.34c.063 0 .094-.064.252-.191v-1.465c-4.45-.923-4.986-1.401-5.082-5.732ZM49.646 110.503c.032-6.433.19-12.834.253-19.267 0-.86-.126-1.688-.19-2.485-3.283.637-6.281 1.306-9.312 1.784-1.42.223-1.452.923-1.105 2.102.726.159 1.453.255 2.178.478 1.768.51 2.842 1.624 2.842 3.566-.032 5.382-.032 10.764-.19 16.178-.094 2.803-.82 3.535-3.693 4.013-1.326.223-1.831.701-1.168 2.166 4.83 0 9.66.031 14.52-.064.443 0 .853-.828 1.484-1.465-5.335-1.433-5.65-1.784-5.619-7.006ZM43.112 82.127c.031 1.975 1.547 3.503 3.504 3.503 1.925 0 3.535-1.592 3.535-3.503 0-1.91-1.547-3.567-3.44-3.599-2.02-.095-3.63 1.53-3.6 3.6ZM328.57 85.63c1.925.032 3.567-1.496 3.598-3.439.064-2.038-1.515-3.694-3.535-3.694-1.862 0-3.504 1.656-3.567 3.535-.031 1.815 1.642 3.567 3.504 3.599Z" fill="#8F8B85"></path></svg>