<svg fill="none" height="200" width="318" xmlns="http://www.w3.org/2000/svg"><path d="M24.834 120C10.202 120 .09 110.862.09 96.026c0-16.97 12.014-25.16 27.836-25.16 4.163 0 7.375.356 11.3 1.899l-.713 9.85h-2.141c-1.309-6.29-4.996-7.832-11.301-7.832-12.015 0-18.795 8.9-18.795 20.294 0 12.343 6.542 21.007 19.508 21.007 3.212 0 6.424-.475 9.517-1.306v-16.26h5.948c-.357 2.493-.476 5.104-.476 7.596 0 3.561 0 7.24.595 10.8C35.778 118.695 30.663 120 24.834 120ZM51.718 119.05c.714-12.936.952-25.753.952-38.69 0-2.492.476-9.613-2.38-10.8-1.308-.593-3.33-.593-4.758-.712v-1.78C48.864 66.475 52.313 66 55.763 66c.596 0 1.31 0 1.904.119v52.931h-5.948ZM81.22 86.294c-7.019 0-9.16 4.629-9.993 10.8l18.676-.83c0-6.053-2.14-9.97-8.683-9.97Zm14.156 13.886-24.387-.119c0 8.901 3.569 15.903 13.561 15.903 3.57 0 7.019-1.186 9.993-2.967l-.357 3.798c-3.45 2.374-6.9 3.086-11.063 3.086-11.42 0-17.844-7.596-17.844-18.752 0-9.85 5.472-18.395 16.297-18.158 10.112.119 13.918 5.103 13.918 14.004.12 1.069 0 2.137-.118 3.205ZM109.174 75.732c-2.379 0-3.33-2.018-3.33-4.154 0-2.255.713-4.391 3.33-4.391 2.379 0 3.212 2.255 3.212 4.273.119 2.136-.595 4.272-3.212 4.272Zm-2.974 43.319c.595-8.071.952-16.26.952-24.211 0-6.765-.119-7.952-7.018-8.427v-1.899a49.065 49.065 0 0 1 10.23-1.068c.595 0 1.308.119 1.903.119v35.486H106.2ZM130.111 120c-3.569 0-6.781-.594-9.755-2.493l.833-6.052c2.855 2.611 6.186 5.103 10.349 5.103 3.807 0 6.9-2.255 6.9-6.171 0-4.51-3.688-5.934-7.733-7.121-4.877-1.424-10.349-2.967-10.349-9.85 0-7.715 6.781-10.445 13.561-10.445 2.974 0 6.067.356 8.803 1.662l-1.07 8.426h-2.023c-.357-3.916-2.617-6.527-6.78-6.527-3.331 0-6.9 1.899-6.9 5.697 0 4.39 3.807 5.578 7.97 6.883 4.997 1.543 10.469 3.086 10.469 10.207-.119 7.714-7.376 10.681-14.275 10.681ZM160.207 120c-3.569 0-6.781-.594-9.755-2.493l.833-6.052c2.855 2.611 6.186 5.103 10.349 5.103 3.807 0 6.9-2.255 6.9-6.171 0-4.51-3.688-5.934-7.732-7.121-4.878-1.424-10.35-2.967-10.35-9.85 0-7.715 6.781-10.445 13.561-10.445 2.974 0 6.067.356 8.803 1.662l-1.07 8.426h-2.023c-.357-3.916-2.617-6.527-6.78-6.527-3.331 0-6.9 1.899-6.9 5.697 0 4.39 3.807 5.578 7.97 6.883 4.997 1.543 10.469 3.086 10.469 10.207 0 7.714-7.257 10.681-14.275 10.681ZM220.28 119.05c-8.684.119-17.249-.237-25.813 0 .713-11.274.832-22.549.832-33.942 0-5.104.357-8.19-2.141-9.732-1.19-.712-2.855-.95-5.472-1.068v-1.9c3.45-.949 7.494-1.186 11.063-1.186.714 0 1.427 0 2.141.119-.119 11.987-.238 24.092-.238 36.197 0 8.189 1.904 7.477 8.803 7.477 5.948 0 8.565-.356 9.517-6.764h2.379l-1.071 10.799ZM250.019 119.05l-.119-5.34c-3.806 3.916-6.542 6.053-12.133 6.053-7.138 0-10.23-4.392-10.23-11.275 0-4.866.475-9.613.475-14.36 0-4.748-.475-7.003-3.806-7.834-.833-.237-2.022-.356-3.331-.356V84.04c3.331-.713 8.684-1.306 12.134-.95 0 7.12-.357 14.36-.357 21.481 0 4.866.238 10.8 6.661 10.8 3.569 0 7.614-1.661 9.993-4.391.238-5.697.713-11.512.713-17.327 0-4.392-.475-6.29-3.092-7.121-.952-.237-2.261-.475-3.926-.594V84.04c4.045-.713 7.851-.95 12.015-.95.238 8.308-.119 16.734-.119 25.16 0 5.104-.119 6.765 2.26 7.715.952.356 2.379.712 4.401 1.068v2.017h-11.539ZM277.974 119.763c-7.137 0-9.397-4.273-9.397-10.682 0-7.002.237-14.004.356-20.888l-6.78-.949v-1.78l6.899-1.068V73.952l5.234-.831-.118 11.275h10.349v3.797h-10.468c0 6.29-.119 12.581-.119 18.871 0 4.51.713 9.019 6.542 9.019 1.428 0 2.855-.356 4.283-.83l.119 3.204c-2.142.831-4.64 1.306-6.9 1.306ZM317.111 119.05h-26.646c-.714-1.78-.595-1.424-.714-1.78l21.055-29.789c-2.617-.356-5.59-.237-8.208-.237-4.282-.119-6.78.356-7.732 6.29h-2.022l-.595-9.85h25.338c.119 2.254.119 2.373.119 2.492v.118c-6.543 8.19-14.513 19.227-20.461 28.246 3.331.356 6.662.712 9.993.712 3.568 0 7.018-.356 10.468-1.186l-.595 4.984Z" fill="#8F8B85"></path></svg>