<svg fill="none" height="200" width="330" xmlns="http://www.w3.org/2000/svg"><path d="M15.736 104.064c.131-1.329.327-2.658.61-4.031v-.043c-.043 0-.087 0-.108.021-2.005.196-5.164.436-7.517.741-4.096.545-7.821 1.089-8.126 1.46-.85 1.002 4.771 1.743 13.311 1.852h1.83Z" fill="#524F49"></path><path d="M58.764 65.022c-13.486 0-26.797 7.625-35.01 18.802 0 0-19.129 1.373-20.132 3.072C.616 92.669.53 102.364.53 102.364v-.022l.065-.131c.305-.37 4.03-.915 8.126-1.46 2.332-.305 5.512-.544 7.517-.74.043 0 .065 0 .109-.022 6.645-.654 19.324-1.569 26.557-1.765 17.756-.48 33.072-.348 43.703.13 3.094-18.561-9.062-33.332-27.843-33.332h.001Z" fill="#706D66"></path><path d="M86.628 98.355c-10.61-.48-25.925-.632-43.703-.13-7.255.196-19.934 1.11-26.579 1.764-.13.741-.37 1.961-.566 3.551v.088a41 41 0 0 0-.153 1.634v.108a37.69 37.69 0 0 0-.043 1.569c0 .327 0 .654.021.98 0 .284 0 .545.022.807.022.566.065 1.154.109 1.721.022.152.044.326.065.479.044.436.11.871.175 1.307.021.174.065.349.087.523.065.414.152.828.24 1.242.043.174.065.327.108.479.11.414.218.85.327 1.264.022.065.044.13.066.218a431.26 431.26 0 0 1 24.596-1.678c.109 0 4.248-.152 4.292-.152 8.976-.284 29.194-.131 34.662-.066.871 0 1.416.022 1.416.022 4.597.065 6.47.109 11.242.37 2.2.109 5.86.262 6.057.741v.022c0 .022 0 .022-.022.043 3.028-5.599 3.072-14.858 3.072-14.858.174-.806-5.6-1.59-15.49-2.048Z" fill="#ADABA5"></path><path d="M81.486 82.887h4.008C81.77 72.212 71.877 65 58.784 65c-13.486 0-26.797 7.647-35.01 18.802 5.904-.545 13.616-1.002 21.175-1.133 1.482-.022 4.314-.632 5.904-2.985 2.963-4.4 5.883-8.845 10.022-10.326.065-.022.152-.066.218-.088 6.318-2.374 14.64 3.486 20.393 13.617Z" fill="#706D66"></path><path d="M80.35 114.085C72.313 126.394 58.195 135 43.88 135c-6.449 0-12.113-1.743-16.667-4.793-5.01-3.355-8.649-8.3-10.436-14.226a431.267 431.267 0 0 1 24.597-1.678c.13 0 4.27-.152 4.292-.152 9.02-.283 29.237-.131 34.683-.066h.002Z" fill="#524F49"></path><path d="M99.086 115.196c-.196-.48-3.856-.61-6.057-.741-4.793-.262-6.666-.305-11.242-.371 0 0-.544 0-1.416-.021a50.735 50.735 0 0 1-2.57 3.551c12.635-.371 20.937-1.264 21.285-2.418Z" fill="#706D66"></path><path d="M263.704 107.286c-1.634-8.823 6.47-18.605 16.667-21.415 11.873-2.397 21.874 2.178 23.681 11.285 1.264 8.91-5.599 18.235-17.102 20.915-10.872 2.026-21.351-1.874-23.246-10.785Zm15.294-10.719c-3.987 4.532-5.011 10.458-2.288 13.202 2.724 2.745 8.148 1.307 12.113-3.224 3.965-4.532 5.011-10.458 2.288-13.202-2.702-2.745-8.127-1.307-12.113 3.224Zm-55.25-1.72c-.066-1.2-.654-2.092-1.721-2.659-1.068-.566-2.637-.871-4.663-.871h-2.069l-1.961 9.215h1.656c2.875 0 5.076-.479 6.623-1.46 1.525-1.002 2.244-2.396 2.135-4.226Zm-22.636 22.439s-3.093.131-2.68-2.811l5.403-25.315c.305-1.46 1.743-2.637 3.203-2.637h13.05c2.396 0 4.488.153 6.274.436 1.808.261 3.377.72 4.706 1.373 1.329.653 2.353 1.503 3.094 2.57.74 1.046 1.154 2.615 1.263 4.183.218 3.552-1.394 6.427-4.858 8.584-3.464 2.179-8.431 3.007-14.923 3.007h-3.595l-2.288 10.61h-8.649Zm-50.457-22.549c-.087-1.242-.61-2.113-1.59-2.614-.981-.523-2.375-.785-4.227-.785h-2.941l-1.765 8.28h2.92c2.527 0 4.444-.415 5.773-1.286 1.307-.872 1.917-2.07 1.83-3.595Zm-14.292 22.549h-8.78c-.61-.022-2.897-.24-2.527-2.811l5.403-25.315c.305-1.46 1.743-2.637 3.203-2.637h14.858c2.157 0 4.03.131 5.643.37 1.634.24 3.05.676 4.248 1.286 1.198.61 1.982 1.177 2.789 2.375.827 1.22 1.023 2.135 1.132 3.616.262 3.53-1.263 5.926-4.4 7.931-2.898 1.525-6.907 1.764-7.865 1.786 0 0-.981.218.152.501 0 0 1.395.349 2.549 1.373 2.462 1.96 4.27 3.986 9.848 11.503h-13.181s-2.266-4.553-6.972-11.328c-1.045-1.504-2.745-1.264-3.376-1.329l-2.724 12.679Zm182.478-5.926h10.654l-.719 3.421c-.283 1.394-1.743 2.527-3.159 2.527h-16.754c-.61-.022-2.897-.24-2.527-2.811l5.403-25.316c.305-1.46 1.743-2.636 3.203-2.636h9.259l-5.36 24.815ZM180.872 99.138h13.987l-.697 3.224c-.284 1.417-1.743 2.637-3.203 2.637H179.63l-1.372 6.361h13.986l-.719 3.421c-.283 1.394-1.742 2.527-3.159 2.527h-20.108c-.61-.022-2.898-.24-2.527-2.811l5.403-25.316c.305-1.46 1.743-2.636 3.202-2.636h23.225l-.697 3.29c-.305 1.46-1.743 2.636-3.203 2.636h-11.35l-1.439 6.667Zm85.708-12.593-.697 3.29c-.414 1.525-1.547 2.593-3.203 2.636h-.74c-6.645.022-7.059 1.83-8.345 7.996l-1.59 7.32c-1.939 9.324-10.349 9.499-11.067 9.499h-16.841l.719-3.289c.436-1.613 1.634-2.528 3.202-2.637h4.053c6.644-.021 7.058-1.83 8.344-7.995l1.59-7.32c2.005-9.303 12.135-9.5 13.682-9.5h10.893Z" fill="#8F8B85"></path></svg>