<svg fill="none" height="200" width="289" xmlns="http://www.w3.org/2000/svg"><path d="M17.345 119.953c3.543 0 5.729-.319 8.546-1.462v-5.778l-4.775 2.061c-.955.279-2.225.366-3.317.366-6.138 0-8.865-3.757-8.865-11.822 0-8.477 2.773-11.828 8.818-11.828 1.139 0 2.502.186 3.364.366l4.775 2.294v-5.958c-2.455-1.05-5.136-1.515-8.41-1.515-9.32 0-14.68 5.505-14.68 16.641 0 11.184 5.088 16.635 14.544 16.635Zm25.5.047c8.5 0 12.503-4.674 12.503-13.75V91.856l.907-4.581H48.71l.91 4.58v14.488c0 5.818-1.819 8.71-6.64 8.71-4.68 0-6.636-2.892-6.636-8.71V91.856l.91-4.581h-7.727l.905 4.58v14.395c0 9.029 4.14 13.75 12.412 13.75Zm28.136-13.929c-1.635 0-2.995.272-4.134.864l4.045-12.6 4.32 12.647c-1.274-.545-2.778-.911-4.23-.911Zm-6.682 8.703.637-2.014c1.318-1.191 3.23-1.696 6.045-1.696 2.638 0 4.821.685 6.274 1.882l.637 1.828.82 4.588h7.043l-11.908-32.22h-5.135l-11.548 32.22h6.23l.905-4.588Zm27.138 4.588h7.638l-.91-4.588V92.042h5.048l4.545 1.01v-5.777H82.756v5.778l4.548-1.011h5.047v22.732l-.913 4.588Zm26.549-16.775V92.042h3.726c3.546 0 5.364 1.742 5.364 5.312 0 3.351-1.818 5.233-4.864 5.233h-4.226Zm0 12.187v-7.513h4.363l3.818 7.513 1.593 4.588h7.362l-7.362-13.338c3.317-1.562 5.319-4.541 5.319-8.67 0-6.416-4.278-10.08-11.228-10.08h-10.55l.912 4.582v22.918l-.912 4.588h7.594l-.909-4.588Zm20.41 4.588h20.867v-5.871l-4.552 1.104h-9.587v-9.535h8.273l3.862.778v-6.143l-3.862.778h-8.273v-8.431h9.501l4.545 1.104v-5.871h-20.774l.909 4.58v22.919l-.909 4.588Zm38.776.591c3.543 0 5.726-.319 8.54-1.462v-5.778l-4.771 2.061c-.956.279-2.223.366-3.318.366-6.138 0-8.865-3.757-8.865-11.822 0-8.477 2.773-11.828 8.818-11.828 1.142 0 2.502.186 3.365.366l4.771 2.294v-5.958c-2.449-1.05-5.13-1.515-8.408-1.515-9.316 0-14.677 5.505-14.677 16.641 0 11.184 5.089 16.635 14.545 16.635Zm23.814-13.882c-1.632 0-2.999.272-4.134.864l4.041-12.6 4.32 12.647c-1.268-.545-2.774-.911-4.227-.911Zm-6.675 8.703.63-2.014c1.32-1.191 3.231-1.696 6.045-1.696 2.641 0 4.824.685 6.277 1.882l.637 1.828.816 4.588h7.047l-11.911-32.22h-5.135l-11.546 32.22h6.224l.916-4.588ZM226.532 120c6.735 0 10.822-3.617 10.822-9.807 0-4.082-2.09-6.921-6.363-8.71l-2.548-1.057c-4.041-1.649-5.222-2.925-5.222-5.312 0-2.248 1.586-3.624 4.359-3.624 1.547 0 3.046.186 4.001.412l4.546 2.248v-6.37c-2.362-.738-5.501-1.15-8.274-1.15-6.636 0-10.637 3.53-10.637 9.262 0 4.355 2.501 7.559 7.14 9.401l2.09.818c3.815 1.516 4.863 2.666 4.863 5.086 0 2.527-1.731 3.943-4.684 3.943-1.725 0-3.497-.226-4.91-.545l-4.546-2.387v6.236c3.139 1.19 5.687 1.556 9.363 1.556Zm26.004-13.929c-1.632 0-2.999.272-4.134.864l4.041-12.6 4.326 12.647c-1.28-.545-2.78-.911-4.233-.911Zm-6.682 8.703.637-2.014c1.321-1.191 3.232-1.696 6.045-1.696 2.634 0 4.817.685 6.277 1.882l.63 1.828.823 4.588h7.04l-11.904-32.22h-5.142l-11.539 32.22h6.224l.909-4.588ZM278.082 120c6.728 0 10.822-3.617 10.822-9.807 0-4.082-2.096-6.921-6.37-8.71l-2.541-1.057c-4.048-1.649-5.229-2.925-5.229-5.312 0-2.248 1.593-3.624 4.366-3.624 1.546 0 3.046.186 4.001.412l4.546 2.248v-6.37c-2.369-.738-5.501-1.15-8.275-1.15-6.635 0-10.636 3.53-10.636 9.262 0 4.355 2.501 7.559 7.133 9.401l2.09.818c3.822 1.516 4.871 2.666 4.871 5.086 0 2.527-1.732 3.943-4.685 3.943-1.732 0-3.504-.226-4.91-.545l-4.546-2.387v6.236c3.139 1.19 5.68 1.556 9.363 1.556ZM29.872 24 15.898 38.04h7.744l2.01-3.737 4.22-4.242 4.217 4.242 2.014 3.736h7.74L29.873 24ZM45.77 39.977l-13.973 14.04h7.746l2.008-3.741 4.22-4.238 4.22 4.238 2.013 3.74h7.74L45.772 39.977ZM0 54.017h7.743l2.007-3.741 4.224-4.238 4.22 4.238 2.01 3.74h7.74l-13.97-14.039L0 54.017ZM29.872 55.951 15.898 69.99h7.744l2.01-3.737 4.22-4.242 4.22 4.242 2.011 3.737h7.74L29.873 55.95Z" fill="#8F8B85"></path></svg>