<svg fill="none" height="200" width="293" xmlns="http://www.w3.org/2000/svg"><path d="M12.707 70.926h5.405c7.433 0 10.924 2.814 11.036 9.904.113 8.667-5.067 11.368-13.175 11.368H12.82V70.926h-.113Zm11.036 22.172c6.419-.45 12.95-4.727 12.837-11.93-.112-7.09-5.743-11.705-15.09-11.705H.77v1.463h4.392v46.37H.432v1.463H17.55v-1.463h-5.067V92.76l17.68 25.999H41.31v-1.463h-3.716L21.266 93.323l2.477-.225Z" fill="#8F8B85"></path><path d="M43.675 90.847c.563-4.052 3.265-7.878 6.982-7.99 4.391-.226 6.08 4.389 6.193 8.665l.113 3.94H42.999l.676-4.615Zm20.27 14.406h-1.577l-.113 1.013c-.45 5.065-3.828 12.155-10.36 11.818-7.32-.451-8.896-8.104-8.896-16.77v-4.277h20.945c.789-7.653-4.617-15.756-12.95-15.756-8.67.112-14.526 8.778-14.977 19.02-.45 11.142 6.42 19.696 15.428 19.583 7.094-.112 11.936-6.415 12.5-13.393v-1.238Zm9.796-14.406c.564-4.052 3.266-7.878 6.982-7.99 4.392-.226 6.081 4.389 6.194 8.665l.112 3.94H73.066l.675-4.615Zm20.27 14.406h-1.576v1.013c-.45 5.065-3.83 12.155-10.36 11.818-7.32-.451-8.897-8.104-8.897-16.77v-4.277h20.946c.788-7.653-4.617-15.756-12.95-15.756-8.671.112-14.527 8.778-14.977 19.02-.45 11.142 6.418 19.696 15.427 19.583 7.095-.112 11.937-6.415 12.5-13.393l-.113-1.238Zm16.892-21.721c7.319-.113 8.67 9.904 8.558 18.908-.113 6.752-1.464 15.419-8.221 15.531-7.207.113-7.995-9.566-7.995-16.769-.113-14.069 3.716-17.67 7.658-17.67Zm18.13 33.876h-3.379V69.463h-10.585v1.463h4.279v17.67c-1.802-3.939-4.729-6.978-9.121-7.09-7.432-.113-14.189 8.103-14.302 18.795-.112 9.229 5.068 19.471 14.189 19.696 4.842.113 7.32-2.926 9.234-6.64v5.402h9.685v-1.351Zm33.782-32.526h-1.576l-1.577-5.965c-2.027-7.653-4.842-8.891-10.022-9.341-5.743-.45-12.387 3.264-12.162 9.116.451 8.666 12.162 8.891 20.495 13.506 5.068 2.926 7.658 6.64 7.658 12.155.112 9.791-9.234 15.419-17.793 15.419-5.067 0-10.923-1.576-14.301-4.052v-15.531h1.464l.338 1.463 1.689 6.077c1.464 5.628 4.392 10.355 10.698 10.242 8.445-.112 12.274-4.389 12.274-10.692.113-7.09-6.644-9.566-11.599-11.255-9.909-3.601-15.427-6.527-15.427-14.518 0-7.991 7.207-13.506 16.666-13.506 5.18 0 11.148 1.8 13.175 3.039v13.843Zm4.73 32.414h3.603V83.869h-3.716v-1.463h10.023v5.177c1.464-4.276 5.855-6.19 9.346-6.19 4.392 0 7.995 2.476 9.347 6.528 1.802-4.277 6.306-6.753 9.909-6.415 10.473.9 9.46 7.203 9.46 15.756v20.034h3.49v1.463h-14.188v-1.463h4.166V91.635c0-5.402-.901-7.99-5.518-7.878-4.729.225-7.094 5.852-7.094 12.83v20.709h3.829v1.463h-14.189v-1.463h4.054V97.037c0-9.904.112-13.28-5.18-13.28-6.532.112-7.658 7.54-7.658 15.306v18.345h4.167v1.463h-13.851v-1.575Zm53.264 0h3.829V83.869h-3.604v-1.463h10.135v35.002h3.379v1.463h-13.739v-1.575Zm10.585-43.331c0 2.364-1.914 4.052-4.053 4.052-2.14 0-4.054-1.801-4.054-3.94 0-2.138 1.801-4.051 3.941-4.051 2.252-.113 4.166 1.8 4.166 3.939Zm15.428.788v7.653h8.333v1.463h-8.333v26.336c0 1.801.113 7.428 4.054 7.316 3.266 0 4.842-2.814 4.842-6.978v-5.74h1.464v6.978c0 2.476-1.126 7.991-7.995 7.991-9.797 0-8.671-8.329-8.671-14.969V83.869h-4.392v-1.463h4.392v-7.653h6.306Zm30.967 42.543h4.392V93.323c0-4.727.113-9.566-4.729-9.341-6.982.225-7.996 10.129-7.996 17.445v15.869h4.73v1.463h-14.639v-1.463h3.491v-46.37h-3.716v-1.463h10.134v19.02c1.014-3.15 5.293-6.977 9.797-6.64 6.757.563 9.122 3.377 9.122 11.143v24.422h3.716v1.463h-14.302v-1.575Z" fill="#8F8B85"></path></svg>